PathFileType  4	(X/Y/Z) C:\Users\antoi\Documents\MyRepositories\mobilecap\ResultsAnalysis
DataRate	CameraRate	NumFrames	NumMarkers	Units	OrigDataRate	OrigDataStartFrame	OrigNumFrames
100.0	100.0	4	51	mm	100.0	71	280
Frame#	Time	r_knee			r_shank_antsup			r_ankle			r_calc			r_5meta			r_toe			L_knee			L_shank_antsup			L_ankle			L_calc			L_5meta			L_toe			r_sh2			r_sh3			r_sh4			L_sh2			L_sh3			r_thigh1			r_thigh2			r_thigh3			r_thigh4			r_thigh5			L_thigh1			L_thigh2			L_thigh3			L_thigh4			r.ASIS			r.PSIS			L.ASIS			L.PSIS			C7			R_Shoulder			L_Shoulder			R_Sternum			L_Sternum			R_humerus			R_elbow_med			R_elbow_lat			R_forearm			R_wrist_radius			R_wrist_ulna			L_humerus			L_elbow_med			L_elbow_lat			L_forearm			L_wrist_radius			L_wrist_ulna			R_HJC			L_HJC			R_HJC_reg			L_HJC_reg			
		X1	Y1	Z1	X2	Y2	Z2	X3	Y3	Z3	X4	Y4	Z4	X5	Y5	Z5	X6	Y6	Z6	X7	Y7	Z7	X8	Y8	Z8	X9	Y9	Z9	X10	Y10	Z10	X11	Y11	Z11	X12	Y12	Z12	X13	Y13	Z13	X14	Y14	Z14	X15	Y15	Z15	X16	Y16	Z16	X17	Y17	Z17	X18	Y18	Z18	X19	Y19	Z19	X20	Y20	Z20	X21	Y21	Z21	X22	Y22	Z22	X23	Y23	Z23	X24	Y24	Z24	X25	Y25	Z25	X26	Y26	Z26	X27	Y27	Z27	X28	Y28	Z28	X29	Y29	Z29	X30	Y30	Z30	X31	Y31	Z31	X32	Y32	Z32	X33	Y33	Z33	X34	Y34	Z34	X35	Y35	Z35	X36	Y36	Z36	X37	Y37	Z37	X38	Y38	Z38	X39	Y39	Z39	X40	Y40	Z40	X41	Y41	Z41	X42	Y42	Z42	X43	Y43	Z43	X44	Y44	Z44	X45	Y45	Z45	X46	Y46	Z46	X47	Y47	Z47	X48	Y48	Z48	X49	Y49	Z49	X50	Y50	Z50	X51	Y51	Z51	

71	0.70000000	-860.89924	741.95084	-445.11742	-895.25341	623.59674	-463.67461	-1197.26047	466.48402	-449.21437	-1281.44378	463.13847	-494.83842	-1111.59242	353.87228	-407.58830	-1069.00569	360.55603	-482.62805	-895.49361	735.05866	-780.69646	-906.32585	621.41025	-748.45130	-1215.40675	453.59520	-733.46134	-1292.24431	455.87921	-682.00352	-1118.03034	345.55885	-761.14099	-1079.42570	358.10296	-691.73664	-980.55510	546.50833	-483.46360	-940.40833	656.04466	-410.26571	-1019.69362	569.90380	-413.72983	-962.88989	672.87861	-799.52358	-1032.35526	572.87106	-798.14018	-893.19310	992.15194	-453.14336	-833.99835	897.98365	-471.50099	-840.13393	858.21821	-417.59487	-954.70163	936.99215	-374.75458	-890.91421	841.50635	-399.09482	-945.66404	991.37569	-792.92984	-868.09464	877.50333	-786.37216	-1035.34433	929.61197	-823.41851	-957.79103	816.01802	-813.55444	-999.73113	1146.29059	-450.36347	-1183.72006	1247.94349	-526.94353	-1007.06199	1147.89229	-713.77836	-1189.09040	1249.91292	-630.75243	-910.62949	1674.51555	-583.70823	-855.56256	1576.40354	-405.06933	-854.78759	1604.72175	-752.36429	-804.69502	1545.43353	-565.28890	-810.38067	1544.53023	-610.82278	-893.09611	1430.69001	-314.26386	-1026.57532	1234.52044	-297.87469	-1003.44847	1275.32068	-223.84377	-862.83035	1166.56981	-222.55752	-785.26740	1074.18845	-216.04606	-804.46886	1056.07037	-182.97863	-867.50484	1471.44722	-867.09933	-961.73810	1262.34438	-916.73890	-918.56637	1305.81460	-975.64236	-775.63357	1244.41618	-898.45643	-675.24620	1181.39403	-883.03879	-681.07606	1158.35131	-925.51464	-1105.33629	1099.23379	-483.30741	-1111.67837	1089.46601	-696.37824	-1094.75120	1096.02287	-483.89845	-1103.75374	1099.23348	-657.52275	
72	0.71000000	-855.21408	738.08408	-445.88803	-891.10839	619.99056	-464.74064	-1195.44297	467.19287	-449.10381	-1279.80058	464.64745	-494.88372	-1110.97251	353.70891	-407.69589	-1068.40765	360.25514	-482.86175	-890.36328	731.44663	-779.92657	-902.47721	617.85865	-747.48382	-1214.01649	454.03233	-733.98915	-1290.97110	456.97443	-682.77631	-1117.58684	345.22952	-761.40352	-1078.93422	357.73244	-691.95041	-977.50037	544.36543	-484.56058	-935.69135	653.04865	-411.11344	-1016.16570	567.93584	-414.47511	-958.42633	669.95712	-798.73314	-1029.03949	570.79181	-797.52027	-887.31937	988.34062	-454.00872	-828.08207	894.17491	-472.84236	-834.30477	854.17994	-418.39793	-948.63513	933.24530	-375.33864	-885.09367	837.62770	-399.87393	-940.31054	988.30412	-792.67627	-862.91042	873.97153	-785.41304	-1030.02345	926.29540	-822.56498	-952.63970	812.68605	-812.76576	-994.79920	1144.22512	-450.27876	-1179.35096	1244.05351	-527.41576	-1002.58362	1145.45183	-714.62252	-1184.81708	1244.52261	-628.83108	-910.87604	1673.26237	-583.58567	-854.14088	1576.39691	-405.13660	-853.80559	1605.30219	-751.58028	-802.86889	1545.59640	-565.10280	-808.59898	1544.58655	-610.73905	-888.82448	1432.32245	-312.02663	-1017.44294	1233.52400	-290.12040	-995.45734	1277.46847	-217.22422	-848.59524	1177.68053	-217.19060	-764.91366	1090.87862	-211.03296	-782.14350	1072.43789	-176.86719	-861.05695	1475.38381	-868.61890	-944.78273	1262.54358	-924.85028	-902.90315	1310.82988	-982.29337	-758.45682	1258.84951	-900.13030	-653.48039	1203.51602	-881.91999	-656.66739	1179.39669	-925.00646	-1099.35276	1095.80735	-482.96044	-1106.43561	1085.68193	-695.99297	-1089.59108	1094.38371	-483.06785	-1098.99034	1095.18974	-657.35977	
73	0.72000000	-850.16346	734.43241	-446.46259	-887.56544	616.71908	-465.57713	-1193.87518	467.64277	-449.68466	-1278.37321	465.83933	-495.39738	-1110.54589	353.72915	-407.84705	-1067.90103	359.94647	-483.26036	-886.19931	727.66596	-778.77540	-899.49158	614.15517	-746.38287	-1213.41137	454.04083	-735.18240	-1290.34496	457.32014	-683.59698	-1117.36462	344.79016	-761.65970	-1078.68930	357.35885	-692.24747	-974.56039	542.64293	-485.74908	-931.59289	650.14062	-411.85611	-1013.26287	565.90579	-415.34734	-954.73886	666.82333	-797.77967	-1026.39495	568.47122	-796.92312	-881.38507	984.89562	-454.46749	-822.53889	890.39928	-473.77707	-828.68524	849.71684	-419.52148	-942.82988	929.93168	-375.83265	-879.67110	834.00471	-400.65754	-935.03814	984.98969	-792.18678	-858.23351	870.19310	-784.34151	-1025.08787	923.35816	-821.67453	-948.32788	809.18497	-811.45522	-989.35265	1142.55654	-450.39717	-1174.55828	1240.76012	-527.91000	-998.11255	1143.50915	-715.39207	-1180.33567	1240.98185	-628.05585	-910.82947	1672.80408	-583.39227	-852.38748	1577.39501	-405.23100	-852.55773	1606.99714	-750.61758	-800.79509	1546.62136	-565.07039	-806.53277	1545.48782	-610.79928	-884.42916	1435.33134	-309.57512	-1008.49267	1234.36304	-281.45841	-987.51525	1281.48597	-210.10197	-834.68529	1191.29295	-211.99031	-745.17628	1110.59969	-206.25635	-760.39880	1092.01407	-171.11388	-854.08279	1480.98690	-870.16573	-927.10103	1265.22036	-933.53850	-886.50948	1318.48234	-989.50296	-741.36763	1275.74425	-902.07234	-633.50677	1228.02772	-880.90952	-634.28358	1203.74768	-924.14978	-1093.45086	1093.21480	-482.99371	-1101.23360	1082.84707	-695.99111	-1083.89991	1091.89161	-482.86568	-1093.96619	1092.31453	-657.58035	
74	0.73000000	-845.92373	730.87759	-447.15129	-884.76051	613.71557	-466.30161	-1192.60227	468.00606	-450.61140	-1277.22414	466.72522	-496.48004	-1110.31376	353.97074	-408.20696	-1067.46237	359.62599	-483.77233	-883.08270	723.89655	-777.44195	-897.95801	610.73968	-745.08331	-1213.55116	453.50974	-736.54229	-1290.38038	457.00819	-684.34415	-1117.33350	344.28654	-761.88827	-1078.74669	357.03846	-692.53357	-972.24322	540.79462	-486.88708	-928.40887	647.25080	-412.67930	-1011.05780	564.09991	-416.31171	-951.92441	663.68035	-797.05837	-1024.53588	565.89792	-796.20226	-875.46569	981.70594	-454.74001	-817.22927	886.75324	-474.17560	-823.50390	845.25177	-420.75978	-937.14653	926.99591	-376.16920	-874.62906	830.72148	-401.25380	-929.66115	981.12980	-790.96838	-854.04979	866.18091	-783.37103	-1020.57802	920.80395	-820.80237	-944.88287	805.77874	-809.85183	-982.94311	1141.38664	-450.65078	-1169.03591	1238.34141	-527.77434	-993.04300	1142.30573	-716.24041	-1175.22151	1238.98932	-628.13281	-910.50118	1673.30482	-583.13583	-850.32466	1579.54067	-405.38699	-850.95320	1610.00027	-749.62797	-798.53411	1548.76972	-565.14603	-803.97397	1547.53350	-610.75289	-879.81017	1439.94942	-306.87879	-999.60247	1237.32437	-271.91307	-979.53586	1287.56375	-202.50429	-821.30202	1207.22904	-206.68721	-726.53656	1132.97995	-201.88154	-739.57811	1114.59080	-165.70056	-846.19462	1488.25787	-871.96123	-908.34777	1270.62640	-942.36858	-869.57572	1328.66109	-996.70953	-724.86134	1295.09804	-904.81853	-615.11531	1254.93346	-880.09659	-613.42050	1231.10078	-923.04793	-1087.00500	1091.46609	-483.24242	-1095.58978	1081.08849	-696.20807	-1077.41771	1089.37084	-483.08400	-1088.20262	1090.49334	-658.16238	
